<svg width="93" height="27" viewBox="0 0 93 27" fill="none" xmlns="http://www.w3.org/2000/svg">
<g clip-path="url(#clip0)">
<path d="M26.9947 6.65895C26.9632 6.36854 26.7827 6.11151 26.513 5.98563L13.8567 0.0793852C13.6306 -0.0261362 13.3693 -0.0261362 13.1431 0.0793852L0.486896 5.98563C0.217213 6.11151 0.0367559 6.36849 0.00516797 6.65895C0.00448242 6.66501 0 6.7458 0 6.75023V21.094C0 21.439 0.210041 21.7493 0.530402 21.8773L13.1867 26.9398C13.2872 26.9801 13.3936 27.0002 13.5 27.0002C13.6064 27.0002 13.7128 26.9801 13.8133 26.9398L26.4696 21.8773C26.79 21.7493 27 21.439 27 21.094V6.75023C27 6.7458 26.9954 6.66496 26.9947 6.65895ZM13.5 1.77506L24.0334 6.69064L19.9774 8.31307L9.24576 3.7604L13.5 1.77506ZM7.18822 4.72059L17.7533 9.20264L13.5 10.904L2.96662 6.69064L7.18822 4.72059ZM1.6875 7.99645L12.6562 12.3839V24.9102L1.6875 20.5227V7.99645ZM14.3438 24.9103V12.3839L25.3125 7.99645V20.5227L14.3438 24.9103Z" fill="#0A143A"/>
</g>
<path d="M47.1562 18.4844H40.9922L39.8203 22H36.082L42.4336 4.9375H45.6914L52.0781 22H48.3398L47.1562 18.4844ZM41.9414 15.6367H46.207L44.0625 9.25L41.9414 15.6367Z" fill="#0A143A"/>
<path d="M64.875 15.7773C64.875 17.8086 64.4414 19.3945 63.5742 20.5352C62.707 21.668 61.4961 22.2344 59.9414 22.2344C58.5664 22.2344 57.4688 21.707 56.6484 20.6523L56.4961 22H53.4492V4H56.8359V10.457C57.6172 9.54297 58.6445 9.08594 59.918 9.08594C61.4648 9.08594 62.6758 9.65625 63.5508 10.7969C64.4336 11.9297 64.875 13.5273 64.875 15.5898V15.7773ZM61.4883 15.5312C61.4883 14.25 61.2852 13.3164 60.8789 12.7305C60.4727 12.1367 59.8672 11.8398 59.0625 11.8398C57.9844 11.8398 57.2422 12.2812 56.8359 13.1641V18.168C57.25 19.0586 58 19.5039 59.0859 19.5039C60.1797 19.5039 60.8984 18.9648 61.2422 17.8867C61.4062 17.3711 61.4883 16.5859 61.4883 15.5312Z" fill="#0A143A"/>
<path d="M70.5469 22H67.1484V9.32031H70.5469V22ZM66.9492 6.03906C66.9492 5.53125 67.1172 5.11328 67.4531 4.78516C67.7969 4.45703 68.2617 4.29297 68.8477 4.29297C69.4258 4.29297 69.8867 4.45703 70.2305 4.78516C70.5742 5.11328 70.7461 5.53125 70.7461 6.03906C70.7461 6.55469 70.5703 6.97656 70.2188 7.30469C69.875 7.63281 69.418 7.79688 68.8477 7.79688C68.2773 7.79688 67.8164 7.63281 67.4648 7.30469C67.1211 6.97656 66.9492 6.55469 66.9492 6.03906Z" fill="#0A143A"/>
<path d="M77.4023 6.20312V9.32031H79.5703V11.8047H77.4023V18.1328C77.4023 18.6016 77.4922 18.9375 77.6719 19.1406C77.8516 19.3438 78.1953 19.4453 78.7031 19.4453C79.0781 19.4453 79.4102 19.418 79.6992 19.3633V21.9297C79.0352 22.1328 78.3516 22.2344 77.6484 22.2344C75.2734 22.2344 74.0625 21.0352 74.0156 18.6367V11.8047H72.1641V9.32031H74.0156V6.20312H77.4023Z" fill="#0A143A"/>
<path d="M80.5781 15.543C80.5781 14.2852 80.8203 13.1641 81.3047 12.1797C81.7891 11.1953 82.4844 10.4336 83.3906 9.89453C84.3047 9.35547 85.3633 9.08594 86.5664 9.08594C88.2773 9.08594 89.6719 9.60938 90.75 10.6562C91.8359 11.7031 92.4414 13.125 92.5664 14.9219L92.5898 15.7891C92.5898 17.7344 92.0469 19.2969 90.9609 20.4766C89.875 21.6484 88.418 22.2344 86.5898 22.2344C84.7617 22.2344 83.3008 21.6484 82.207 20.4766C81.1211 19.3047 80.5781 17.7109 80.5781 15.6953V15.543ZM83.9648 15.7891C83.9648 16.9922 84.1914 17.9141 84.6445 18.5547C85.0977 19.1875 85.7461 19.5039 86.5898 19.5039C87.4102 19.5039 88.0508 19.1914 88.5117 18.5664C88.9727 17.9336 89.2031 16.9258 89.2031 15.543C89.2031 14.3633 88.9727 13.4492 88.5117 12.8008C88.0508 12.1523 87.4023 11.8281 86.5664 11.8281C85.7383 11.8281 85.0977 12.1523 84.6445 12.8008C84.1914 13.4414 83.9648 14.4375 83.9648 15.7891Z" fill="#0A143A"/>
<defs>
<clipPath id="clip0">
<rect width="27" height="27" fill="white"/>
</clipPath>
</defs>
</svg>
